<?xml version="1.0" standalone="no"?>
<!DOCTYPE svg PUBLIC "-//W3C//DTD SVG 20010904//EN"
 "http://www.w3.org/TR/2001/REC-SVG-20010904/DTD/svg10.dtd">
<svg version="1.0" xmlns="http://www.w3.org/2000/svg"
 width="512.000000pt" height="512.000000pt" viewBox="0 0 512.000000 512.000000"
 preserveAspectRatio="xMidYMid meet">
<metadata>
Created by potrace 1.11, written by Peter Selinger 2001-2013
</metadata>
<g transform="translate(0.000000,512.000000) scale(0.100000,-0.100000)"
fill="#000000" stroke="none">
<path d="M2812 4933 c-34 -7 -37 -29 -11 -81 31 -62 31 -181 -1 -297 -32 -114
-30 -112 -97 -112 -69 0 -307 -13 -343 -18 -14 -2 -52 -6 -85 -10 -33 -3 -71
-8 -85 -10 -14 -2 -43 -7 -65 -10 -23 -3 -52 -7 -65 -10 -14 -3 -41 -8 -60
-11 -71 -12 -236 -56 -314 -83 -170 -59 -292 -127 -371 -205 -76 -76 -78 -85
-71 -280 7 -183 12 -231 30 -286 14 -45 36 -48 163 -20 54 12 109 24 123 26
14 3 50 9 80 15 30 6 116 12 190 15 190 6 302 -19 509 -112 l46 -21 -105 -1
c-129 -1 -242 -12 -390 -38 -275 -49 -564 -154 -746 -272 -120 -78 -360 -296
-465 -422 -187 -226 -245 -449 -189 -729 88 -437 366 -758 711 -821 69 -13
212 -15 294 -5 385 47 820 311 1109 673 32 40 92 105 134 145 41 39 102 100
135 134 56 58 64 62 133 78 41 9 76 16 79 16 2 0 19 5 37 10 18 5 45 11 59 14
15 3 74 16 133 30 58 14 115 25 127 25 25 0 26 2 -30 -132 -22 -53 -53 -146
-70 -205 -29 -103 -33 -125 -47 -218 -3 -22 -9 -57 -14 -78 -9 -42 -5 -402 5
-457 3 -19 13 -73 21 -120 65 -366 249 -657 493 -780 112 -56 219 -81 367 -85
268 -7 465 87 482 230 6 55 -16 95 -53 95 -29 0 -41 -20 -47 -75 -6 -53 -20
-76 -67 -117 -113 -97 -353 -114 -489 -36 -178 104 -313 295 -381 542 -12 43
-24 94 -27 114 -3 20 -9 53 -13 72 -20 95 -9 339 23 515 26 138 158 541 230
700 8 17 25 55 39 87 30 65 23 62 238 112 200 48 335 94 363 124 24 28 30 67
11 85 -15 15 -19 15 -46 2 -24 -13 -187 -44 -369 -71 -19 -3 -43 -7 -52 -10
-10 -3 -18 -3 -18 0 0 2 47 97 104 210 154 303 159 321 131 431 -25 97 -86
182 -195 276 -32 28 -108 62 -124 56 -7 -3 -18 -23 -24 -45 -12 -39 -88 -153
-167 -248 -41 -49 -266 -300 -349 -389 -94 -100 -429 -435 -432 -432 -2 1 6
36 16 77 50 192 44 410 -14 583 -35 103 -65 161 -126 241 -146 194 -371 336
-672 426 -132 39 -235 61 -356 74 -12 2 -25 5 -28 9 -11 11 141 43 241 52 33
3 78 7 100 9 66 7 259 16 454 21 l184 5 59 -64 c32 -36 74 -74 92 -85 51 -32
146 -24 146 12 0 7 -12 38 -27 68 -48 94 -42 124 65 339 112 226 132 285 134
397 1 51 -5 74 -30 126 -67 136 -246 250 -360 230z m-372 -1627 c182 -11 273
-38 334 -101 40 -41 112 -184 122 -242 3 -16 7 -35 9 -43 7 -26 18 -123 18
-165 1 -129 -64 -259 -179 -358 -40 -34 -22 -31 -289 -61 -109 -12 -345 -13
-440 -2 -27 3 -72 9 -100 12 -88 11 -215 43 -269 69 -37 18 -57 34 -68 58 -19
39 -54 54 -67 28 -12 -21 -5 -92 14 -148 84 -248 284 -375 564 -360 58 3 122
9 141 12 19 4 80 15 135 25 l100 18 -60 -54 c-68 -62 -245 -177 -415 -271
-110 -61 -256 -115 -345 -129 -22 -3 -60 -10 -85 -14 -25 -5 -97 -9 -161 -9
-240 0 -422 68 -561 210 -123 126 -189 292 -189 472 1 179 76 348 218 490 69
69 381 304 438 331 222 102 624 214 831 232 43 4 80 7 81 8 2 2 119 -2 223 -8z
m1419 -287 c-129 -220 -146 -249 -227 -401 -71 -136 -65 -130 -157 -143 -22
-3 -69 -10 -105 -16 -127 -19 -155 -21 -147 -13 177 181 732 744 734 744 1 0
-43 -77 -98 -171z"/>
</g>
</svg>
