<?xml version="1.0" encoding="utf-8"?>
<!-- Generator: Adobe Illustrator 17.0.0, SVG Export Plug-In . SVG Version: 6.00 Build 0)  -->
<!DOCTYPE svg PUBLIC "-//W3C//DTD SVG 1.1//EN" "http://www.w3.org/Graphics/SVG/1.1/DTD/svg11.dtd">
<svg version="1.1" id="Layer_1" xmlns="http://www.w3.org/2000/svg" xmlns:xlink="http://www.w3.org/1999/xlink" x="0px" y="0px"
	 width="494.624px" height="58.773px" viewBox="0 0 494.624 58.773" enable-background="new 0 0 494.624 58.773"
	 xml:space="preserve">
<g>
	<path fill="#FFFFFF" d="M28.608,43.805c0.061,3.998-0.977,7.414-3.113,10.252c-1.404,1.922-3.387,3.281-5.951,4.074
		c-1.373,0.428-2.975,0.641-4.806,0.641c-3.387,0-6.195-0.839-8.422-2.518c-1.862-1.373-3.335-3.241-4.417-5.606
		c-1.084-2.365-1.716-5.073-1.9-8.125l8.239-0.595c0.367,3.343,1.251,5.767,2.655,7.27c1.037,1.134,2.227,1.671,3.57,1.61
		c1.892-0.06,3.403-0.992,4.532-2.795c0.579-0.885,0.87-2.153,0.87-3.802c0-2.382-1.084-4.749-3.25-7.101
		c-1.71-1.619-4.272-4.047-7.69-7.284c-2.869-2.78-4.898-5.27-6.088-7.469c-1.282-2.474-1.923-5.161-1.923-8.063
		c0-5.222,1.755-9.179,5.264-11.866C8.346,0.81,11.032,0,14.235,0c3.082,0,5.721,0.687,7.919,2.06
		c1.708,1.068,3.089,2.563,4.142,4.486c1.052,1.922,1.686,4.135,1.9,6.637l-8.285,1.51c-0.245-2.349-0.916-4.18-2.014-5.493
		c-0.794-0.946-1.938-1.419-3.433-1.419c-1.587,0-2.792,0.702-3.616,2.106c-0.672,1.129-1.007,2.533-1.007,4.211
		c0,2.625,1.128,5.295,3.387,8.01c0.854,1.038,2.136,2.259,3.845,3.662c2.014,1.679,3.341,2.855,3.982,3.525
		c2.136,2.137,3.784,4.242,4.944,6.316c0.549,0.977,0.992,1.877,1.328,2.701C28.15,40.357,28.578,42.188,28.608,43.805z"/>
	<path fill="#FFFFFF" d="M49.277,33.781v24.305h-8.651V0.732h8.651v24.351h10.436V0.732h8.651v57.354h-8.651V33.781H49.277z"/>
	<path fill="#FFFFFF" d="M94.529,0c3.814,0,7.056,1.343,9.727,4.028c2.67,2.685,4.005,5.92,4.005,9.704v31.309
		c0,3.815-1.343,7.056-4.028,9.727c-2.685,2.67-5.921,4.005-9.704,4.005c-3.815,0-7.049-1.342-9.704-4.028
		c-2.655-2.685-3.982-5.919-3.982-9.703V13.732c0-3.814,1.342-7.056,4.028-9.727C87.555,1.336,90.775,0,94.529,0z M99.243,13.549
		c0-1.373-0.481-2.54-1.442-3.502C96.84,9.086,95.673,8.605,94.3,8.605c-1.373,0-2.548,0.481-3.525,1.442
		c-0.976,0.962-1.464,2.129-1.464,3.502v31.4c0,1.373,0.488,2.54,1.464,3.501c0.976,0.962,2.152,1.443,3.525,1.443
		c1.374,0,2.541-0.481,3.502-1.443c0.961-0.961,1.442-2.128,1.442-3.501V13.549z"/>
	<path fill="#FFFFFF" d="M129.297,58.086L119.045,0.732h9.068l7.199,44.707l7.251-44.707h9.072l-10.436,57.354H129.297z"/>
	<path fill="#FFFFFF" d="M165.701,44.904l-2.102,13.182h-9.008l9.75-57.354h11.9l9.612,57.354h-9.096l-2.024-13.182H165.701z
		 M170.246,13.87l-3.204,22.612h6.408L170.246,13.87z"/>
	<path fill="#FFFFFF" d="M207.677,0.687l11.481,38.577V0.687h8.65v57.4h-9.29l-11.903-36.756v36.756h-8.651v-57.4H207.677z"/>
	<path fill="#FFFFFF" d="M260.485,44.904l-2.101,13.182h-9.008l9.75-57.354h11.901l9.611,57.354h-9.096l-2.024-13.182H260.485z
		 M265.03,13.87l-3.203,22.612h6.408L265.03,13.87z"/>
	<path fill="#FFFFFF" d="M301.4,58.086h-8.651v-57.4h12.415l8.062,41.233l7.739-41.233h11.927v57.4h-8.651V22.017l-7.506,36.069
		h-6.957L301.4,22.108V58.086z"/>
	<path fill="#FFFFFF" d="M345.462,58.086v-57.4h12.953c3.418,0,6.5,0.9,9.247,2.701c2.349,1.526,4.027,3.891,5.035,7.095
		c0.549,1.709,0.824,3.738,0.824,6.088c0,3.845-1.022,6.927-3.067,9.246c-0.854,0.977-1.861,1.725-3.021,2.243
		c1.922,0.732,3.554,2.182,4.898,4.348c0.885,1.465,1.541,3.357,1.969,5.676c0.212,1.19,0.32,2.517,0.32,3.982
		c0,3.631-0.687,6.713-2.06,9.246c-1.069,1.984-2.579,3.57-4.532,4.76c-2.197,1.344-4.379,2.014-6.545,2.014H345.462z
		 M354.799,24.123h3.615c2.686,0,4.487-1.312,5.401-3.936c0.336-0.976,0.504-2.182,0.504-3.616c0-2.38-0.58-4.18-1.74-5.401
		c-1.068-1.128-2.457-1.694-4.166-1.694h-3.615V24.123z M354.799,49.527h3.615c2.93,0,4.959-1.51,6.088-4.531
		c0.397-1.037,0.596-2.228,0.596-3.571c0-3.203-0.611-5.538-1.832-7.002c-1.098-1.342-2.715-2.014-4.852-2.014h-3.615V49.527z"/>
	<path fill="#FFFFFF" d="M400.553,58.727c-3.815,0-7.049-1.328-9.704-3.983c-2.654-2.654-3.982-5.873-3.982-9.658V0.732h8.467
		v44.263c0,1.373,0.488,2.54,1.465,3.501c0.977,0.961,2.151,1.442,3.525,1.442s2.54-0.481,3.502-1.442
		c0.961-0.961,1.442-2.128,1.442-3.501V0.732h9.017v44.354c0,3.845-1.342,7.08-4.028,9.704
		C407.572,57.416,404.337,58.727,400.553,58.727z"/>
	<path fill="#FFFFFF" d="M454.867,43.805c0.061,3.998-0.977,7.414-3.113,10.252c-1.404,1.922-3.387,3.281-5.951,4.074
		c-1.373,0.428-2.975,0.641-4.806,0.641c-3.387,0-6.196-0.839-8.422-2.518c-1.862-1.373-3.335-3.241-4.418-5.606
		c-1.082-2.365-1.716-5.073-1.899-8.125l8.239-0.595c0.365,3.343,1.25,5.767,2.654,7.27c1.037,1.134,2.228,1.671,3.571,1.61
		c1.892-0.06,3.402-0.992,4.531-2.795c0.58-0.885,0.869-2.153,0.869-3.802c0-2.382-1.082-4.749-3.25-7.101
		c-1.709-1.619-4.272-4.047-7.689-7.284c-2.869-2.78-4.898-5.27-6.088-7.469c-1.282-2.474-1.922-5.161-1.922-8.063
		c0-5.222,1.754-9.179,5.264-11.866C434.605,0.81,437.29,0,440.494,0c3.082,0,5.721,0.687,7.918,2.06
		c1.709,1.068,3.091,2.563,4.142,4.486c1.053,1.922,1.686,4.135,1.9,6.637l-8.285,1.51c-0.245-2.349-0.916-4.18-2.014-5.493
		c-0.794-0.946-1.938-1.419-3.433-1.419c-1.588,0-2.793,0.702-3.616,2.106c-0.672,1.129-1.007,2.533-1.007,4.211
		c0,2.625,1.128,5.295,3.387,8.01c0.853,1.038,2.136,2.259,3.845,3.662c2.014,1.679,3.342,2.855,3.982,3.525
		c2.136,2.137,3.783,4.242,4.944,6.316c0.549,0.977,0.991,1.877,1.326,2.701C454.41,40.357,454.836,42.188,454.867,43.805z"/>
	<path fill="#FFFFFF" d="M475.536,33.781v24.305h-8.651V0.732h8.651v24.351h10.436V0.732h8.651v57.354h-8.651V33.781H475.536z"/>
</g>
</svg>
