<?xml version="1.0" encoding="utf-8"?>
<!-- Generator: Adobe Illustrator 17.0.0, SVG Export Plug-In . SVG Version: 6.00 Build 0)  -->
<!DOCTYPE svg PUBLIC "-//W3C//DTD SVG 1.1//EN" "http://www.w3.org/Graphics/SVG/1.1/DTD/svg11.dtd">
<svg version="1.1" id="Layer_1" xmlns="http://www.w3.org/2000/svg" xmlns:xlink="http://www.w3.org/1999/xlink" x="0px" y="0px"
	 width="552.813px" height="137.884px" viewBox="0 0 552.813 137.884" enable-background="new 0 0 552.813 137.884"
	 xml:space="preserve">
<g>
	<g>
		<path d="M150.535,56.218c0.05,3.313-0.81,6.144-2.579,8.495c-1.163,1.593-2.807,2.718-4.931,3.376
			c-1.138,0.355-2.465,0.531-3.982,0.531c-2.807,0-5.133-0.695-6.979-2.086c-1.543-1.138-2.763-2.686-3.66-4.645
			c-0.898-1.959-1.422-4.203-1.574-6.733l6.827-0.493c0.304,2.77,1.037,4.778,2.2,6.024c0.859,0.94,1.845,1.385,2.958,1.334
			c1.567-0.05,2.819-0.822,3.755-2.316c0.48-0.733,0.721-1.784,0.721-3.15c0-1.974-0.898-3.935-2.693-5.884
			c-1.417-1.342-3.54-3.353-6.372-6.036c-2.377-2.303-4.059-4.366-5.044-6.189c-1.062-2.05-1.593-4.277-1.593-6.681
			c0-4.327,1.454-7.605,4.362-9.833c1.795-1.341,4.021-2.012,6.675-2.012c2.554,0,4.741,0.569,6.562,1.707
			c1.416,0.885,2.56,2.124,3.432,3.717c0.872,1.593,1.397,3.426,1.574,5.5l-6.865,1.251c-0.203-1.947-0.759-3.464-1.669-4.551
			c-0.658-0.784-1.606-1.176-2.845-1.176c-1.315,0-2.313,0.582-2.996,1.745c-0.557,0.936-0.834,2.099-0.834,3.489
			c0,2.175,0.935,4.387,2.807,6.637c0.708,0.86,1.77,1.872,3.186,3.034c1.668,1.391,2.769,2.365,3.299,2.921
			c1.77,1.771,3.135,3.515,4.096,5.233c0.455,0.81,0.822,1.555,1.1,2.238C150.156,53.36,150.51,54.878,150.535,56.218z"/>
		<path d="M167.662,47.911v20.139h-7.168V20.527h7.168v20.178h8.648V20.527h7.169v47.524h-7.169V47.911H167.662z"/>
		<path d="M205.158,19.92c3.16,0,5.846,1.113,8.059,3.338c2.212,2.225,3.319,4.905,3.319,8.041v25.943
			c0,3.161-1.113,5.847-3.337,8.059c-2.225,2.212-4.906,3.319-8.041,3.319c-3.161,0-5.841-1.112-8.041-3.338
			c-2.2-2.225-3.3-4.904-3.3-8.04V31.299c0-3.161,1.112-5.847,3.337-8.06C199.379,21.027,202.047,19.92,205.158,19.92z
			 M209.064,31.147c0-1.138-0.398-2.105-1.195-2.902c-0.796-0.796-1.763-1.195-2.902-1.195c-1.138,0-2.111,0.398-2.92,1.195
			c-0.809,0.797-1.213,1.764-1.213,2.902v26.018c0,1.138,0.404,2.105,1.213,2.901c0.809,0.797,1.783,1.196,2.92,1.196
			c1.138,0,2.105-0.398,2.902-1.196c0.796-0.796,1.195-1.763,1.195-2.901V31.147z"/>
		<path d="M233.967,68.051l-8.495-47.524h7.513l5.965,37.044l6.008-37.044h7.517l-8.648,47.524H233.967z"/>
		<path d="M264.131,57.128l-1.742,10.923h-7.464l8.079-47.524h9.86l7.964,47.524h-7.537l-1.677-10.923H264.131z M267.897,31.413
			l-2.655,18.737h5.31L267.897,31.413z"/>
		<path d="M298.913,20.489l9.513,31.965V20.489h7.168v47.562h-7.698l-9.862-30.456v30.456h-7.168V20.489H298.913z"/>
		<path d="M342.669,57.128l-1.741,10.923h-7.464l8.079-47.524h9.861l7.964,47.524h-7.537l-1.677-10.923H342.669z M346.435,31.413
			l-2.654,18.737h5.31L346.435,31.413z"/>
		<path d="M376.572,68.051h-7.169V20.489h10.287l6.68,34.166l6.413-34.166h9.883v47.562h-7.169V38.164l-6.22,29.887h-5.765
			l-6.941-29.811V68.051z"/>
		<path d="M413.081,68.051V20.489h10.733c2.832,0,5.386,0.746,7.662,2.238c1.946,1.265,3.337,3.224,4.172,5.879
			c0.455,1.416,0.683,3.098,0.683,5.045c0,3.186-0.847,5.74-2.542,7.661c-0.708,0.81-1.542,1.429-2.503,1.859
			c1.593,0.606,2.945,1.808,4.058,3.603c0.733,1.214,1.277,2.781,1.631,4.703c0.176,0.986,0.265,2.085,0.265,3.299
			c0,3.009-0.569,5.563-1.707,7.661c-0.886,1.644-2.137,2.958-3.755,3.944c-1.82,1.113-3.628,1.669-5.423,1.669H413.081z
			 M420.819,39.908h2.996c2.226,0,3.718-1.087,4.476-3.262c0.278-0.809,0.418-1.808,0.418-2.996c0-1.972-0.48-3.464-1.441-4.476
			c-0.885-0.935-2.036-1.403-3.452-1.403h-2.996V39.908z M420.819,60.958h2.996c2.428,0,4.109-1.251,5.045-3.754
			c0.329-0.859,0.494-1.846,0.494-2.959c0-2.654-0.506-4.588-1.518-5.802c-0.91-1.112-2.25-1.669-4.021-1.669h-2.996V60.958z"/>
		<path d="M458.731,68.582c-3.161,0-5.841-1.1-8.041-3.3c-2.199-2.199-3.299-4.867-3.299-8.003V20.527h7.016v36.677
			c0,1.138,0.404,2.105,1.214,2.901c0.81,0.796,1.783,1.195,2.92,1.195c1.138,0,2.105-0.398,2.902-1.195
			c0.796-0.796,1.195-1.763,1.195-2.901V20.527h7.471v36.752c0,3.186-1.112,5.866-3.338,8.041
			C464.546,67.495,461.865,68.582,458.731,68.582z"/>
		<path d="M503.735,56.218c0.051,3.313-0.81,6.144-2.579,8.495c-1.163,1.593-2.807,2.718-4.931,3.376
			c-1.138,0.355-2.465,0.531-3.982,0.531c-2.807,0-5.134-0.695-6.979-2.086c-1.543-1.138-2.763-2.686-3.661-4.645
			c-0.897-1.959-1.422-4.203-1.573-6.733l6.827-0.493c0.303,2.77,1.036,4.778,2.199,6.024c0.859,0.94,1.846,1.385,2.959,1.334
			c1.567-0.05,2.819-0.822,3.754-2.316c0.48-0.733,0.72-1.784,0.72-3.15c0-1.974-0.897-3.935-2.693-5.884
			c-1.416-1.342-3.54-3.353-6.371-6.036c-2.377-2.303-4.058-4.366-5.044-6.189c-1.063-2.05-1.593-4.277-1.593-6.681
			c0-4.327,1.454-7.605,4.362-9.833c1.795-1.341,4.02-2.012,6.675-2.012c2.554,0,4.741,0.569,6.561,1.707
			c1.416,0.885,2.561,2.124,3.432,3.717c0.873,1.593,1.397,3.426,1.574,5.5l-6.865,1.251c-0.203-1.947-0.759-3.464-1.669-4.551
			c-0.658-0.784-1.606-1.176-2.844-1.176c-1.315,0-2.314,0.582-2.997,1.745c-0.557,0.936-0.834,2.099-0.834,3.489
			c0,2.175,0.935,4.387,2.807,6.637c0.707,0.86,1.77,1.872,3.186,3.034c1.669,1.391,2.769,2.365,3.299,2.921
			c1.77,1.771,3.135,3.515,4.097,5.233c0.455,0.81,0.821,1.555,1.099,2.238C503.356,53.36,503.71,54.878,503.735,56.218z"/>
		<path d="M520.862,47.911v20.139h-7.169V20.527h7.169v20.178h8.648V20.527h7.169v47.524h-7.169V47.911H520.862z"/>
	</g>
	<path d="M118.332,123.577c0,3.392-5.364,5.521-9.148,5.521l-1.972-0.08c-5.204,0-16.404-7.886-16.404-27.68
		c0-11.751,8.36-29.968,8.36-29.968l0.946-1.892c5.916-1.42,9.937-2.445,9.937-2.445c4.732-1.261,6.545-2.208,6.545-3.628
		c0-0.867-0.157-1.498-1.025-1.34c-0.946,0.079,0.552,0.552-3.944,1.104l-9.068,1.498c2.601-4.811,7.176-13.643,7.176-15.22
		c0-7.886-9.701-13.801-9.701-11.435c0,4.732-26.418,30.52-26.418,30.52l-0.393,0.336c1.063-3.417,1.646-6.861,1.646-10.219
		c0-27.129-34.778-29.258-34.778-29.258s2.366-2.445,27.996-2.524c1.261,1.656,4.022,5.047,6.151,4.732
		c4.81-0.631-1.498-2.918,0.789-8.044c2.208-5.047,6.467-10.804,5.836-16.245c-0.631-5.52-7.413-9.306-10.331-8.911
		c-2.918,0.394-0.394,1.498-0.079,4.1c0.394,3.155-0.631,6.782-1.656,9.542c-31.23,0.316-42.349,9.384-42.349,13.565
		c0,4.416,0.158,13.249,1.814,13.249c1.735,0,8.359-2.366,16.404-2.366c3.48,0,8.922,1.376,13.979,4.077
		c-0.779-0.119-1.595-0.188-2.458-0.188c-9.766,0-23.699,2.756-33.266,9.207C9.034,60.413,5,67.439,5,75.526
		c0,10.33,7.334,28.626,24.446,28.626c13.804,0,27.599-9.037,36.303-20.849c3.382-3.095,6.048-5.83,7.63-7.517
		c4.337-1.025,8.912-2.051,13.25-3.076l1.813-0.157c0,0-5.6,10.33-5.6,23.264c0,13.012,4.811,34.542,25.316,34.542
		c10.094,0,13.012-4.337,13.012-6.94C121.171,120.817,118.332,120.186,118.332,123.577z M26.454,50.943
		c1.871-1.372,11.285-4.517,14.631-5.42c7.421-2.002,11.785-2.147,14.077-2.147c14.51,0,14.561,3.543,15.575,5.6
		c1.343,2.724,1.816,2.943,2.629,10.138c-0.959,6.464-2.715,7.355-5.983,10.622c-1.913,0.244-3.984,0.505-6.149,0.767
		c-10.094,1.341-25.078-0.552-25.551-3.943c0,0-2.366-2.996-1.814,1.42c0.631,4.416,4.81,13.722,18.217,11.987
		c2.108-0.281,5.035-0.813,8.437-1.485c-1.083,1.086-2.24,2.134-3.45,3.141c-3.667,2.517-8.235,5.374-13.063,7.757
		c-4.174,1.603-8.629,2.549-13.225,2.549c-14.668,0-20.261-10.025-20.829-17.388c-0.623-8.076,4.164-13.684,8.957-17.921
		 M87.497,66.876l-6.467,1.025l22.554-23.659c0,0-9.857,16.404-12.538,22.161L87.497,66.876z"/>
	<g>
		<path d="M228.532,110.071c-0.071,0.179-0.196,0.356-0.374,0.534c-0.178,0.179-0.373,0.294-0.587,0.347s-0.427,0.019-0.641-0.107
			c-0.214-0.124-0.409-0.382-0.587-0.774c-0.713-1.281-1.326-2.464-1.842-3.55c-0.517-1.085-0.987-2.224-1.415-3.417
			c-0.427-1.192-0.854-2.509-1.281-3.95c-0.427-1.441-0.926-3.158-1.494-5.151c-0.534,1.602-1.095,3.292-1.682,5.071
			c-0.587,1.78-1.192,3.515-1.815,5.205c-0.623,1.691-1.254,3.266-1.895,4.725c-0.641,1.459-1.264,2.651-1.868,3.576
			c-0.393,0.534-0.721,0.889-0.988,1.068c-0.267,0.178-0.498,0.24-0.693,0.187c-0.196-0.054-0.356-0.187-0.48-0.4
			c-0.125-0.214-0.223-0.409-0.294-0.587c-0.32-3.096-0.597-6.067-0.827-8.915c-0.232-2.847-0.454-5.392-0.667-7.634
			c-0.214-2.242-0.428-4.102-0.641-5.579c-0.214-1.476-0.445-2.375-0.694-2.696c-0.071-0.641,0.151-1.121,0.667-1.441
			s1.022-0.391,1.521-0.213c0.142,0.036,0.284,0.623,0.427,1.762c0.143,1.139,0.275,2.554,0.4,4.244
			c0.125,1.691,0.249,3.533,0.374,5.525c0.124,1.993,0.249,3.835,0.374,5.525c0.124,1.69,0.23,3.096,0.32,4.217
			c0.088,1.121,0.187,1.682,0.293,1.682c0.107,0.249,0.329,0.106,0.668-0.427c0.338-0.534,0.729-1.325,1.174-2.375
			c0.444-1.049,0.925-2.295,1.441-3.737c0.516-1.441,1.032-2.927,1.548-4.458c0.516-1.53,1.006-3.051,1.469-4.564
			c0.462-1.512,0.871-2.874,1.228-4.084c0.178-0.391,0.338-0.658,0.48-0.801c0.142-0.142,0.444-0.16,0.907-0.053
			c0.249,0.107,0.444,0.374,0.587,0.801s0.249,0.961,0.32,1.602s0.16,1.353,0.268,2.135c0.106,0.783,0.267,1.566,0.48,2.349
			c0.178,0.677,0.408,1.521,0.693,2.536s0.596,2.055,0.935,3.123c0.338,1.067,0.694,2.091,1.067,3.069
			c0.374,0.979,0.774,1.753,1.201,2.322c0.214,0.178,0.472-0.187,0.774-1.094c0.302-0.908,0.613-2.126,0.934-3.657
			c0.32-1.53,0.632-3.256,0.935-5.178c0.302-1.922,0.561-3.79,0.774-5.605c0.213-1.815,0.364-3.461,0.453-4.938
			c0.089-1.477,0.08-2.553-0.026-3.229c0-0.427,0.026-0.729,0.08-0.908c0.054-0.178,0.098-0.311,0.134-0.4
			c0.034-0.088,0.053-0.168,0.053-0.24c0-0.071-0.036-0.213-0.106-0.427c-0.072-0.142-0.045-0.311,0.08-0.507
			c0.124-0.195,0.284-0.364,0.48-0.507c0.195-0.142,0.408-0.231,0.641-0.267c0.23-0.035,0.436,0.036,0.613,0.213
			c0.107,0.143,0.16,0.454,0.16,0.934s-0.026,1.095-0.08,1.842c-0.053,0.748-0.125,1.62-0.213,2.616
			c-0.09,0.997-0.152,2.082-0.188,3.256c-0.249,1.815-0.507,3.684-0.773,5.605c-0.267,1.922-0.543,3.817-0.827,5.686
			c-0.286,1.868-0.597,3.675-0.935,5.418C229.234,107.118,228.888,108.684,228.532,110.071z"/>
		<path d="M237.073,98.221c0.106-0.035,0.408-0.134,0.907-0.294c0.498-0.16,0.907-0.187,1.228-0.08
			c1.032-0.035,1.823,0.232,2.376,0.801c0.551,0.57,0.596,1.673,0.133,3.31c-0.676,1.815-1.574,3.328-2.695,4.538
			c-1.121,1.21-2.447,2.367-3.978,3.47c0.355,0.926,0.89,1.441,1.602,1.548s1.459-0.008,2.242-0.347
			c0.782-0.338,1.548-0.792,2.296-1.361c0.747-0.569,1.352-1.067,1.814-1.495c0.748-0.641,1.343-1.183,1.789-1.628
			c0.444-0.445,0.915-0.988,1.414-1.628c0.106-0.071,0.169-0.062,0.187,0.027c0.018,0.089,0.009,0.223-0.026,0.4
			c-0.036,0.179-0.089,0.427-0.16,0.748c-0.106,0.249-0.214,0.472-0.32,0.667c-0.106,0.196-0.259,0.41-0.453,0.641
			c-0.196,0.232-0.454,0.507-0.774,0.828s-0.713,0.747-1.175,1.281c-0.533,0.499-1.05,0.988-1.548,1.468
			c-0.499,0.48-1.023,0.899-1.575,1.254c-0.552,0.356-1.156,0.605-1.814,0.748c-0.659,0.143-1.415,0.143-2.269,0
			c-0.713-0.249-1.281-0.516-1.708-0.801c-0.428-0.285-0.757-0.578-0.988-0.881c-0.231-0.302-0.4-0.578-0.507-0.828
			c-0.106-0.249-0.179-0.462-0.214-0.641c-0.178-0.711-0.249-1.672-0.213-2.882c0.035-1.209,0.391-2.776,1.067-4.698
			c0.462-0.996,0.961-1.842,1.494-2.536C235.738,99.155,236.36,98.612,237.073,98.221z M234.724,107.669
			c0.462-0.249,1.005-0.595,1.628-1.041c0.622-0.445,1.209-0.961,1.762-1.548c0.551-0.587,1.031-1.236,1.441-1.948
			c0.408-0.712,0.631-1.459,0.667-2.242c0.106-0.534,0.088-0.908-0.054-1.121c-0.071-0.107-0.143-0.16-0.213-0.16
			c-0.606-0.284-1.211-0.195-1.815,0.267c-0.605,0.463-1.157,1.121-1.655,1.975s-0.916,1.807-1.254,2.856
			C234.892,105.756,234.724,106.744,234.724,107.669z"/>
		<path d="M244.707,79.056c0.106,0,0.24-0.044,0.4-0.133c0.16-0.088,0.329-0.115,0.507-0.08c0.178,0.036,0.338,0.196,0.48,0.48
			c0.142,0.285,0.248,0.783,0.32,1.495c0.071,0.89,0.142,1.975,0.214,3.256c0.07,1.281,0.15,2.661,0.24,4.137
			c0.088,1.477,0.187,3.016,0.293,4.618c0.107,1.601,0.214,3.159,0.32,4.671c0.107,1.513,0.204,2.918,0.294,4.217
			c0.088,1.3,0.168,2.412,0.24,3.336c0.106-0.427,0.32-1.005,0.641-1.735c0.32-0.729,0.721-1.495,1.201-2.295
			s1.041-1.565,1.682-2.295c0.641-0.729,1.334-1.29,2.081-1.682c0.605-0.249,1.121-0.382,1.549-0.4
			c0.427-0.017,0.791,0.045,1.094,0.187c0.303,0.143,0.552,0.32,0.748,0.534c0.194,0.214,0.347,0.41,0.453,0.587
			c0.428,1.033,0.578,2.225,0.454,3.577c-0.125,1.353-0.463,2.696-1.015,4.03s-1.308,2.554-2.269,3.657
			c-0.961,1.104-2.082,1.904-3.363,2.402c-0.712,0.285-1.228,0.436-1.548,0.454c-0.32,0.018-0.641,0.026-0.961,0.026
			c0.071,0.534,0.089,0.89,0.054,1.068c-0.036,0.178-0.09,0.285-0.16,0.32c-0.143,0.142-0.374,0.222-0.694,0.24
			c-0.32,0.018-0.641-0.009-0.961-0.08c-0.213-2.776-0.409-5.462-0.587-8.061c-0.072-1.103-0.151-2.242-0.24-3.417
			s-0.179-2.313-0.267-3.417c-0.09-1.103-0.17-2.144-0.24-3.123c-0.071-0.979-0.125-1.842-0.16-2.589
			c-0.035-1.352-0.115-2.847-0.24-4.484c-0.125-1.636-0.24-3.158-0.348-4.564c-0.106-1.405-0.194-2.589-0.267-3.55
			C244.582,79.484,244.599,79.022,244.707,79.056z M253.675,99.181c-0.499,0.286-1.023,0.783-1.574,1.495
			c-0.553,0.712-1.068,1.575-1.549,2.589s-0.89,2.127-1.228,3.336c-0.339,1.21-0.543,2.42-0.614,3.63
			c0.712,0.179,1.441,0.08,2.189-0.293c0.747-0.374,1.441-0.898,2.082-1.575c0.64-0.676,1.218-1.459,1.734-2.349
			c0.516-0.889,0.925-1.77,1.228-2.642s0.472-1.69,0.508-2.456c0.035-0.765-0.107-1.379-0.428-1.842
			c-0.249-0.462-0.623-0.631-1.121-0.507C254.404,98.692,253.995,98.897,253.675,99.181z"/>
		<path d="M278.123,76.441c0.214,0.214,0.364,0.445,0.454,0.694c0.088,0.249,0.142,0.516,0.16,0.8
			c0.018,0.286,0.026,0.614,0.026,0.988s0.018,0.81,0.054,1.308c1.85,0.997,3.843,2.011,5.979,3.043
			c2.136,1.033,4.137,2.145,6.006,3.336c1.868,1.193,3.496,2.5,4.884,3.924c1.389,1.423,2.296,3.007,2.723,4.751
			c0.355,2.171,0.187,4.235-0.507,6.192c-0.694,1.958-1.788,3.729-3.283,5.312c-1.495,1.584-3.31,2.919-5.445,4.004
			c-2.135,1.086-4.448,1.86-6.939,2.322c-0.89,0.178-1.753,0.231-2.589,0.16c-0.837-0.071-1.602-0.258-2.296-0.561
			c-0.693-0.302-1.29-0.721-1.788-1.254c-0.499-0.534-0.854-1.156-1.067-1.869c-0.036-0.427,0.026-0.792,0.187-1.094
			c0.16-0.302,0.329-0.516,0.508-0.641c0.178-0.125,0.32-0.168,0.427-0.133c0.106,0.036,0.088,0.196-0.054,0.48
			c0,0.747,0.142,1.344,0.428,1.788c0.284,0.445,0.64,0.792,1.067,1.041c0.427,0.25,0.871,0.436,1.334,0.561
			c0.463,0.125,0.854,0.223,1.175,0.293c-0.179-1.103-0.339-2.482-0.48-4.137c-0.143-1.655-0.294-3.434-0.454-5.338
			c-0.16-1.903-0.312-3.861-0.453-5.872c-0.143-2.01-0.285-3.95-0.428-5.819c-0.143-1.868-0.293-3.577-0.453-5.125
			c-0.16-1.548-0.312-2.803-0.454-3.764c-0.961-0.427-1.727-0.792-2.295-1.094c-0.57-0.302-1.06-0.569-1.469-0.801
			c-0.409-0.231-0.81-0.436-1.201-0.614c-0.392-0.178-0.89-0.355-1.494-0.534c-0.285-0.355-0.365-0.641-0.24-0.854
			c0.124-0.213,0.222-0.515,0.294-0.907c0.889,0.213,1.601,0.418,2.135,0.614c0.534,0.196,0.987,0.392,1.361,0.587
			c0.374,0.196,0.747,0.374,1.121,0.534s0.881,0.312,1.521,0.454c0-0.32-0.01-0.561-0.026-0.721c-0.019-0.16-0.036-0.293-0.054-0.4
			c-0.019-0.106-0.036-0.204-0.054-0.293c-0.019-0.088-0.026-0.222-0.026-0.4C276.593,76.583,277.162,76.263,278.123,76.441z
			 M279.991,95.178c0.071,0.605,0.151,1.379,0.24,2.322c0.089,0.943,0.178,1.958,0.268,3.042c0.088,1.086,0.187,2.198,0.293,3.336
			c0.107,1.14,0.195,2.207,0.268,3.203c0.07,0.997,0.142,1.887,0.213,2.669c0.071,0.783,0.124,1.353,0.16,1.708
			c0.818,0.106,1.931-0.035,3.337-0.427c1.405-0.391,2.864-1.059,4.377-2.002c1.513-0.942,2.937-2.162,4.271-3.657
			c1.335-1.495,2.357-3.31,3.069-5.445c0.249-1.637,0.16-3.114-0.267-4.431c-0.427-1.316-1.077-2.5-1.948-3.55
			c-0.873-1.049-1.932-1.993-3.177-2.83c-1.246-0.835-2.554-1.619-3.923-2.349c-1.371-0.729-2.768-1.405-4.191-2.028
			c-1.424-0.623-2.758-1.255-4.003-1.896c0,0.32,0.035,0.837,0.106,1.548c0.071,0.712,0.142,1.513,0.214,2.402
			c0.07,0.89,0.142,1.815,0.213,2.776s0.143,1.851,0.214,2.669c0.071,0.819,0.134,1.495,0.187,2.028
			C279.965,94.804,279.991,95.107,279.991,95.178z"/>
		<path d="M303.961,98.221c0.106-0.035,0.408-0.134,0.907-0.294c0.498-0.16,0.907-0.187,1.228-0.08
			c1.032-0.035,1.823,0.232,2.376,0.801c0.551,0.57,0.596,1.673,0.133,3.31c-0.676,1.815-1.574,3.328-2.695,4.538
			c-1.121,1.21-2.447,2.367-3.978,3.47c0.355,0.926,0.89,1.441,1.602,1.548s1.459-0.008,2.242-0.347
			c0.782-0.338,1.548-0.792,2.296-1.361c0.747-0.569,1.352-1.067,1.814-1.495c0.748-0.641,1.343-1.183,1.789-1.628
			c0.444-0.445,0.915-0.988,1.414-1.628c0.106-0.071,0.169-0.062,0.187,0.027c0.018,0.089,0.009,0.223-0.026,0.4
			c-0.036,0.179-0.089,0.427-0.16,0.748c-0.106,0.249-0.214,0.472-0.32,0.667c-0.106,0.196-0.259,0.41-0.453,0.641
			c-0.196,0.232-0.454,0.507-0.774,0.828s-0.713,0.747-1.175,1.281c-0.533,0.499-1.05,0.988-1.548,1.468
			c-0.499,0.48-1.023,0.899-1.575,1.254c-0.552,0.356-1.156,0.605-1.814,0.748c-0.659,0.143-1.415,0.143-2.269,0
			c-0.713-0.249-1.281-0.516-1.708-0.801c-0.428-0.285-0.757-0.578-0.988-0.881c-0.231-0.302-0.4-0.578-0.507-0.828
			c-0.106-0.249-0.179-0.462-0.214-0.641c-0.178-0.711-0.249-1.672-0.213-2.882c0.035-1.209,0.391-2.776,1.067-4.698
			c0.462-0.996,0.961-1.842,1.494-2.536C302.626,99.155,303.248,98.612,303.961,98.221z M301.612,107.669
			c0.462-0.249,1.005-0.595,1.628-1.041c0.622-0.445,1.209-0.961,1.762-1.548c0.551-0.587,1.031-1.236,1.441-1.948
			c0.408-0.712,0.631-1.459,0.667-2.242c0.106-0.534,0.088-0.908-0.054-1.121c-0.071-0.107-0.143-0.16-0.213-0.16
			c-0.606-0.284-1.211-0.195-1.815,0.267c-0.605,0.463-1.157,1.121-1.655,1.975s-0.916,1.807-1.254,2.856
			C301.78,105.756,301.612,106.744,301.612,107.669z"/>
		<path d="M323.445,95.818c-0.036-0.107,0.018-0.133,0.16-0.08c0.142,0.053,0.302,0.133,0.48,0.24
			c0.178,0.107,0.347,0.232,0.507,0.374c0.16,0.143,0.24,0.267,0.24,0.374c-0.392,2.776-1.166,5.517-2.322,8.221
			c-1.156,2.705-2.589,5.285-4.297,7.74c-0.463,0.463-0.899,0.694-1.308,0.694c-0.41,0-0.703-0.195-0.881-0.587
			c-0.25-0.748-0.473-1.699-0.668-2.856c-0.195-1.156-0.392-2.384-0.587-3.684c-0.196-1.298-0.419-2.616-0.667-3.95
			c-0.249-1.334-0.534-2.571-0.854-3.71c-0.178-0.605-0.151-0.969,0.08-1.094c0.231-0.125,0.738-0.044,1.521,0.24
			c0.107,0,0.231,0.454,0.374,1.361c0.142,0.908,0.311,2.011,0.507,3.31c0.195,1.299,0.427,2.661,0.694,4.083
			c0.267,1.424,0.596,2.669,0.987,3.737c0.106,0.072,0.32-0.142,0.641-0.641c0.32-0.498,0.694-1.147,1.121-1.948
			s0.881-1.726,1.361-2.776c0.48-1.049,0.925-2.117,1.334-3.203c0.409-1.085,0.756-2.144,1.041-3.176
			C323.196,97.456,323.374,96.566,323.445,95.818z"/>
		<path d="M330.117,98.221c0.106-0.035,0.408-0.134,0.907-0.294c0.498-0.16,0.907-0.187,1.228-0.08
			c1.032-0.035,1.823,0.232,2.376,0.801c0.551,0.57,0.596,1.673,0.133,3.31c-0.676,1.815-1.574,3.328-2.695,4.538
			c-1.121,1.21-2.447,2.367-3.978,3.47c0.355,0.926,0.89,1.441,1.602,1.548s1.459-0.008,2.242-0.347
			c0.782-0.338,1.548-0.792,2.296-1.361c0.747-0.569,1.352-1.067,1.814-1.495c0.748-0.641,1.343-1.183,1.789-1.628
			c0.444-0.445,0.915-0.988,1.414-1.628c0.106-0.071,0.169-0.062,0.187,0.027c0.018,0.089,0.009,0.223-0.026,0.4
			c-0.036,0.179-0.089,0.427-0.16,0.748c-0.106,0.249-0.214,0.472-0.32,0.667c-0.106,0.196-0.259,0.41-0.453,0.641
			c-0.196,0.232-0.454,0.507-0.774,0.828s-0.713,0.747-1.175,1.281c-0.533,0.499-1.05,0.988-1.548,1.468
			c-0.499,0.48-1.023,0.899-1.575,1.254c-0.552,0.356-1.156,0.605-1.814,0.748c-0.659,0.143-1.415,0.143-2.269,0
			c-0.713-0.249-1.281-0.516-1.708-0.801c-0.428-0.285-0.757-0.578-0.988-0.881c-0.231-0.302-0.4-0.578-0.507-0.828
			c-0.106-0.249-0.179-0.462-0.214-0.641c-0.178-0.711-0.249-1.672-0.213-2.882c0.035-1.209,0.391-2.776,1.067-4.698
			c0.462-0.996,0.961-1.842,1.494-2.536C328.782,99.155,329.404,98.612,330.117,98.221z M327.768,107.669
			c0.462-0.249,1.005-0.595,1.628-1.041c0.622-0.445,1.209-0.961,1.762-1.548c0.551-0.587,1.031-1.236,1.441-1.948
			c0.408-0.712,0.631-1.459,0.667-2.242c0.106-0.534,0.088-0.908-0.054-1.121c-0.071-0.107-0.143-0.16-0.213-0.16
			c-0.606-0.284-1.211-0.195-1.815,0.267c-0.605,0.463-1.157,1.121-1.655,1.975s-0.916,1.807-1.254,2.856
			C327.936,105.756,327.768,106.744,327.768,107.669z"/>
		<path d="M342.608,102.277c0,0.107,0.053,0.606,0.16,1.495c0.106,0.89,0.23,1.975,0.373,3.256c0.143,1.281,0.312,2.661,0.508,4.137
			c0.195,1.478,0.373,2.883,0.533,4.217s0.312,2.509,0.454,3.523c0.142,1.014,0.231,1.663,0.267,1.948
			c-0.213-0.036-0.392-0.072-0.533-0.107c-0.143-0.036-0.285-0.125-0.428-0.267c-0.143-0.143-0.312-0.347-0.507-0.614
			c-0.196-0.267-0.472-0.65-0.827-1.148c-0.463-3.275-0.827-6.13-1.095-8.568c-0.267-2.437-0.489-4.421-0.667-5.952
			c-0.641,0.854-1.103,1.424-1.388,1.708c-0.285,0.285-0.462,0.427-0.534,0.427c-0.106,0-0.124-0.16-0.054-0.48
			c0.036-0.178,0.072-0.355,0.107-0.534c0.035-0.178,0.071-0.338,0.106-0.48c0.036-0.142,0.089-0.267,0.16-0.374
			c0.249-0.355,0.472-0.711,0.667-1.068c0.195-0.355,0.348-0.675,0.454-0.961c0.142-0.355,0.248-0.694,0.32-1.014
			c-0.036-0.391-0.062-0.729-0.08-1.014c-0.019-0.285-0.026-0.578-0.026-0.881c0-0.302-0.01-0.614-0.027-0.934
			s-0.026-0.729-0.026-1.228c0-0.462,0-1.165,0-2.108c0-0.942,0-1.993,0-3.149c0-1.156,0.018-2.375,0.054-3.657
			c0.034-1.281,0.08-2.5,0.133-3.657c0.054-1.156,0.125-2.206,0.214-3.149c0.088-0.943,0.187-1.664,0.294-2.162
			c0.248-1.032,0.631-1.823,1.147-2.375c0.516-0.551,1.059-0.872,1.628-0.961c0.569-0.088,1.13,0.053,1.682,0.427
			c0.552,0.374,0.969,0.952,1.255,1.735c0.32,0.783,0.48,1.797,0.48,3.042c0,1.246-0.107,2.607-0.32,4.084
			c-0.214,1.477-0.508,3.016-0.881,4.618c-0.374,1.601-0.774,3.159-1.201,4.671c-0.428,1.513-0.854,2.928-1.281,4.244
			C343.302,100.285,342.929,101.388,342.608,102.277z M342.182,99.235c0.889-2.598,1.618-5.151,2.188-7.661
			c0.568-2.509,0.987-4.759,1.254-6.752c0.268-1.993,0.355-3.604,0.268-4.831c-0.09-1.228-0.348-1.859-0.774-1.896
			c-0.677-0.249-1.21-0.017-1.602,0.694c-0.392,0.712-0.703,1.708-0.935,2.989s-0.383,2.749-0.453,4.404
			c-0.072,1.655-0.099,3.302-0.08,4.938c0.018,1.637,0.044,3.186,0.08,4.645C342.163,97.225,342.182,98.381,342.182,99.235z"/>
		<path d="M347.945,97.313c0.676,0.036,1.423,0.133,2.242,0.293c0.818,0.16,1.619,0.374,2.402,0.641
			c0.782,0.267,1.503,0.57,2.162,0.908c0.658,0.338,1.201,0.721,1.628,1.147c0.427,0.392,0.676,0.988,0.747,1.789
			s0.018,1.682-0.16,2.642c-0.178,0.961-0.453,1.949-0.827,2.963s-0.792,1.931-1.254,2.749c-0.463,0.819-0.961,1.495-1.495,2.029
			s-1.032,0.801-1.495,0.801c-0.783,0-1.441-0.187-1.975-0.561c-0.534-0.374-0.961-0.828-1.281-1.361s-0.561-1.094-0.721-1.682
			c-0.16-0.587-0.258-1.094-0.294-1.521c-0.106-1.886-0.124-3.558-0.053-5.018c0.071-1.459,0.195-2.669,0.373-3.63
			c-0.106-0.177-0.213-0.337-0.32-0.48c-0.106-0.142-0.213-0.275-0.32-0.4c-0.106-0.125-0.23-0.24-0.373-0.347
			c0.143-0.071,0.285-0.178,0.427-0.32C347.643,97.74,347.839,97.526,347.945,97.313z M349.867,110.018
			c0.107,0.143,0.249,0.293,0.428,0.454c0.177,0.16,0.399,0.285,0.667,0.374c0.267,0.089,0.542,0.099,0.827,0.027
			c0.284-0.071,0.587-0.267,0.907-0.587c0.854-0.889,1.495-1.806,1.922-2.749c0.428-0.942,0.702-1.833,0.828-2.669
			c0.124-0.836,0.106-1.575-0.054-2.215s-0.419-1.103-0.774-1.388c-0.285-0.178-0.525-0.329-0.721-0.454
			c-0.195-0.125-0.445-0.24-0.747-0.347c-0.303-0.106-0.686-0.222-1.147-0.347c-0.463-0.125-1.068-0.294-1.815-0.507
			c-0.356,1.139-0.605,2.278-0.747,3.417c-0.143,1.139-0.205,2.18-0.187,3.123c0.018,0.943,0.088,1.761,0.213,2.456
			C349.591,109.297,349.724,109.77,349.867,110.018z"/>
		<path d="M372.393,98.701c0.142,0.071,0.312,0.16,0.508,0.267c0.194,0.107,0.382,0.267,0.56,0.48s0.329,0.49,0.454,0.828
			c0.124,0.338,0.187,0.774,0.187,1.308c-0.071,1.851-0.533,3.523-1.388,5.018c-0.854,1.495-1.877,2.758-3.069,3.79
			c-1.192,1.033-2.429,1.797-3.71,2.295c-1.281,0.499-2.367,0.676-3.257,0.534c0,3.452,0.027,6.334,0.08,8.648
			c0.054,2.313,0.089,4.208,0.107,5.686c0.018,1.476,0.018,2.589,0,3.336c-0.019,0.748-0.072,1.263-0.16,1.548
			c-0.09,0.284-0.25,0.418-0.48,0.4c-0.232-0.019-0.525-0.062-0.881-0.133c-0.072,0.106-0.125,0.017-0.16-0.267
			c-0.036-0.25-0.062-0.694-0.08-1.334c-0.019-0.641-0.026-1.637-0.026-2.99c0-0.106-0.01-0.72-0.027-1.841
			c-0.019-1.121-0.035-2.527-0.053-4.217c-0.019-1.691-0.054-3.55-0.107-5.579c-0.053-2.028-0.115-4.003-0.187-5.925
			c-0.072-1.922-0.151-3.701-0.24-5.338c-0.089-1.636-0.205-2.9-0.347-3.79c0-0.071-0.019-0.249-0.054-0.534
			c-0.036-0.285-0.08-0.641-0.134-1.068c-0.053-0.427-0.124-0.889-0.213-1.388c-0.089-0.498-0.188-0.979-0.294-1.441
			c0.604-0.035,1.015,0.027,1.228,0.187c0.214,0.16,0.428,0.347,0.641,0.561c0.214,0.676,0.418,1.761,0.614,3.256
			c0.195,1.495,0.418,3.523,0.667,6.085c0.071-0.355,0.258-0.854,0.561-1.495c0.302-0.641,0.702-1.326,1.201-2.055
			c0.498-0.729,1.067-1.45,1.708-2.162c0.641-0.711,1.316-1.316,2.028-1.815c0.712-0.498,1.433-0.845,2.162-1.041
			C370.961,98.319,371.682,98.381,372.393,98.701z M365.668,110.712c1.636-0.676,2.927-1.548,3.87-2.616
			c0.942-1.068,1.628-2.126,2.055-3.176c0.428-1.049,0.641-1.983,0.641-2.803c0-0.818-0.16-1.334-0.48-1.548
			c-0.712-0.462-1.388-0.516-2.028-0.16c-0.641,0.356-1.264,0.783-1.868,1.281c-0.32,0.285-0.766,0.792-1.335,1.521
			c-0.569,0.729-1.139,1.54-1.708,2.429c-0.569,0.89-1.06,1.788-1.468,2.696c-0.41,0.908-0.614,1.7-0.614,2.375
			c0.142,0.179,0.355,0.303,0.641,0.374c0.214,0.072,0.507,0.089,0.881,0.054C364.627,111.104,365.098,110.962,365.668,110.712z"/>
		<path d="M380.028,98.221c0.106-0.035,0.408-0.134,0.907-0.294c0.498-0.16,0.907-0.187,1.228-0.08
			c1.032-0.035,1.823,0.232,2.376,0.801c0.551,0.57,0.596,1.673,0.133,3.31c-0.676,1.815-1.574,3.328-2.695,4.538
			c-1.121,1.21-2.447,2.367-3.978,3.47c0.355,0.926,0.89,1.441,1.602,1.548s1.459-0.008,2.242-0.347
			c0.782-0.338,1.548-0.792,2.296-1.361c0.747-0.569,1.352-1.067,1.814-1.495c0.748-0.641,1.343-1.183,1.789-1.628
			c0.444-0.445,0.915-0.988,1.414-1.628c0.106-0.071,0.169-0.062,0.187,0.027c0.018,0.089,0.009,0.223-0.026,0.4
			c-0.036,0.179-0.089,0.427-0.16,0.748c-0.106,0.249-0.214,0.472-0.32,0.667c-0.106,0.196-0.259,0.41-0.453,0.641
			c-0.196,0.232-0.454,0.507-0.774,0.828s-0.713,0.747-1.175,1.281c-0.533,0.499-1.05,0.988-1.548,1.468
			c-0.499,0.48-1.023,0.899-1.575,1.254c-0.552,0.356-1.156,0.605-1.814,0.748c-0.659,0.143-1.415,0.143-2.269,0
			c-0.713-0.249-1.281-0.516-1.708-0.801c-0.428-0.285-0.757-0.578-0.988-0.881c-0.231-0.302-0.4-0.578-0.507-0.828
			c-0.106-0.249-0.179-0.462-0.214-0.641c-0.178-0.711-0.249-1.672-0.213-2.882c0.035-1.209,0.391-2.776,1.067-4.698
			c0.462-0.996,0.961-1.842,1.494-2.536C378.693,99.155,379.315,98.612,380.028,98.221z M377.68,107.669
			c0.462-0.249,1.005-0.595,1.628-1.041c0.622-0.445,1.209-0.961,1.762-1.548c0.551-0.587,1.031-1.236,1.441-1.948
			c0.408-0.712,0.631-1.459,0.667-2.242c0.106-0.534,0.088-0.908-0.054-1.121c-0.071-0.107-0.143-0.16-0.213-0.16
			c-0.606-0.284-1.211-0.195-1.815,0.267c-0.605,0.463-1.157,1.121-1.655,1.975s-0.916,1.807-1.254,2.856
			C377.848,105.756,377.68,106.744,377.68,107.669z"/>
		<path d="M388.729,96.459c-0.036-0.32,0.134-0.4,0.507-0.24c0.374,0.16,0.756,0.33,1.147,0.507c0.143,0.819,0.249,1.468,0.32,1.949
			s0.125,0.934,0.16,1.361c0.035,0.427,0.071,0.89,0.107,1.388c0.035,0.499,0.088,1.157,0.16,1.975
			c0.32-0.818,0.711-1.575,1.174-2.269s1.059-1.29,1.789-1.789c0.729-0.498,1.601-0.862,2.615-1.094
			c1.015-0.231,2.233-0.311,3.657-0.24c0,0.285-0.099,0.525-0.294,0.721c-0.196,0.196-0.649,0.347-1.361,0.454
			c-1.032,0.179-1.931,0.526-2.696,1.041c-0.766,0.517-1.424,1.113-1.975,1.789c-0.553,0.676-0.997,1.397-1.335,2.162
			c-0.338,0.766-0.613,1.468-0.827,2.109c-0.036,0.32-0.08,0.774-0.134,1.361c-0.053,0.587-0.089,1.21-0.106,1.868
			c-0.019,0.659-0.036,1.3-0.054,1.922c-0.018,0.623,0.009,1.113,0.08,1.468c0.035,0.179-0.045,0.312-0.24,0.4
			s-0.418,0.151-0.667,0.187c-0.249,0.035-0.48,0.018-0.694-0.053c-0.213-0.072-0.319-0.195-0.319-0.374
			c0.07-3.665-0.027-6.824-0.294-9.475C389.183,100.935,388.943,98.559,388.729,96.459z"/>
	</g>
</g>
</svg>
