<?xml version="1.0" encoding="utf-8"?>
<!-- Generator: Adobe Illustrator 17.0.0, SVG Export Plug-In . SVG Version: 6.00 Build 0)  -->
<!DOCTYPE svg PUBLIC "-//W3C//DTD SVG 1.1//EN" "http://www.w3.org/Graphics/SVG/1.1/DTD/svg11.dtd">
<svg version="1.1" id="Layer_1" xmlns="http://www.w3.org/2000/svg" xmlns:xlink="http://www.w3.org/1999/xlink" x="0px" y="0px"
	 width="512px" height="512px" viewBox="0 0 512 512" enable-background="new 0 0 512 512" xml:space="preserve">
<g>
	<path fill-rule="evenodd" clip-rule="evenodd" fill="#FFFFFF" d="M345.696,172.866c4.273,4.964,12.341-5.307,3.112-7.672
		c-8.774-2.245-14.373,12.787-2.542,15.709c11.727,2.896,22.199-3.5,32.782-1.146c2.357-0.333,4.729,0.047,4.521,1.588l0.076,0.031
		l-0.076-0.021c-0.031,0.229-0.117,0.484-0.276,0.765c-0.513,0.932-2.209,1.235-2.657-0.021c-3.503-4.057-10.115,4.354-2.544,6.287
		c3.917,1.005,8.083-2.411,8.589-6.042c0.422-3.031-1.966-6.667-6.508-6.833c-12.235-0.427-23.813,9.224-30.376-0.255
		c-0.081,0.021-0.162,0.047-0.242,0.073c-3.729,1.057-8.847,0.714-7.099-2.484C343.081,171.71,345.157,171.34,345.696,172.866
		L345.696,172.866z M377.358,180.132c-11.54-1.036-20.584,7.011-33.217,4.115c-14.373-3.292-7.527-21.652,4.625-19.86
		c6.427,0.948,7.05,8.876,1.105,10.839c8.37,2.479,14.412-0.182,21.282-1.182c23.392-3.401,19.431,16.844,6.971,15.011
		C372.801,188.273,372.34,181.663,377.358,180.132z"/>
	<path fill-rule="evenodd" clip-rule="evenodd" fill="#FFFFFF" d="M174.341,172.866c0.542-1.526,2.612-1.156,3.24-0.021
		c1.75,3.198-3.365,3.541-7.094,2.484c-0.083-0.026-0.164-0.052-0.245-0.073c-6.566,9.48-18.141-0.172-30.376,0.255
		c-4.542,0.166-6.93,3.802-6.511,6.833c0.505,3.631,4.669,7.047,8.589,6.042c7.57-1.932,0.956-10.344-2.547-6.287
		c-0.445,1.256-2.141,0.953-2.654,0.021c-0.156-0.281-0.242-0.536-0.274-0.765l-0.075,0.021l0.075-0.031
		c-0.213-1.541,2.159-1.922,4.521-1.588c10.584-2.354,21.053,4.042,32.785,1.146c11.828-2.922,6.227-17.954-2.542-15.709
		C161.999,167.559,170.07,177.83,174.341,172.866L174.341,172.866z M141.913,189.054c-12.459,1.834-16.415-18.412,6.971-15.011
		c6.873,1,12.915,3.661,21.282,1.182c-5.943-1.964-5.323-9.891,1.109-10.839c12.151-1.792,18.995,16.569,4.623,19.86
		c-12.638,2.896-21.68-5.151-33.215-4.115C147.702,181.663,147.233,188.273,141.913,189.054z"/>
	<g>
		<path fill="#FFFFFF" d="M83.38,265.44c0.048,3.185-0.778,5.906-2.479,8.167c-1.118,1.531-2.698,2.613-4.74,3.245
			c-1.094,0.341-2.37,0.511-3.829,0.511c-2.698,0-4.935-0.668-6.709-2.006c-1.483-1.094-2.656-2.582-3.519-4.466
			c-0.863-1.884-1.367-4.041-1.513-6.473l6.563-0.474c0.292,2.663,0.997,4.594,2.115,5.791c0.826,0.903,1.774,1.331,2.844,1.282
			c1.507-0.048,2.71-0.79,3.61-2.227c0.461-0.705,0.693-1.715,0.693-3.028c0-1.897-0.863-3.783-2.589-5.656
			c-1.362-1.29-3.403-3.224-6.125-5.803c-2.285-2.214-3.902-4.198-4.85-5.95c-1.021-1.971-1.532-4.111-1.532-6.423
			c0-4.16,1.398-7.312,4.193-9.453c1.726-1.289,3.865-1.934,6.417-1.934c2.455,0,4.558,0.547,6.308,1.641
			c1.361,0.851,2.461,2.042,3.3,3.573c0.838,1.531,1.343,3.294,1.513,5.287l-6.6,1.203c-0.195-1.872-0.729-3.33-1.604-4.375
			c-0.632-0.753-1.544-1.13-2.735-1.13c-1.264,0-2.224,0.56-2.88,1.677c-0.535,0.899-0.802,2.018-0.802,3.354
			c0,2.091,0.899,4.218,2.698,6.381c0.68,0.827,1.701,1.799,3.063,2.917c1.604,1.337,2.662,2.274,3.172,2.808
			c1.702,1.702,3.014,3.379,3.938,5.031c0.438,0.778,0.79,1.495,1.058,2.151C83.015,262.693,83.355,264.152,83.38,265.44z"/>
		<path fill="#FFFFFF" d="M99.845,257.455v19.361h-6.891v-45.688h6.891v19.398h8.313v-19.398h6.892v45.688h-6.892v-19.361H99.845z"
			/>
		<path fill="#FFFFFF" d="M135.892,230.545c3.038,0,5.621,1.07,7.748,3.209c2.127,2.139,3.19,4.716,3.19,7.73v24.94
			c0,3.039-1.07,5.621-3.208,7.748c-2.139,2.127-4.716,3.19-7.73,3.19c-3.039,0-5.615-1.069-7.73-3.209
			c-2.115-2.139-3.172-4.715-3.172-7.729v-24.94c0-3.039,1.069-5.621,3.208-7.749C130.336,231.609,132.901,230.545,135.892,230.545z
			 M139.647,241.338c0-1.094-0.383-2.023-1.148-2.79c-0.766-0.766-1.695-1.148-2.79-1.148c-1.094,0-2.03,0.383-2.808,1.148
			c-0.778,0.766-1.167,1.696-1.167,2.79v25.013c0,1.094,0.389,2.023,1.167,2.789c0.778,0.767,1.714,1.149,2.808,1.149
			c1.094,0,2.024-0.383,2.79-1.149c0.766-0.766,1.148-1.695,1.148-2.789V241.338z"/>
		<path fill="#FFFFFF" d="M163.588,276.816l-8.167-45.688h7.223l5.735,35.613l5.776-35.613h7.227l-8.313,45.688H163.588z"/>
		<path fill="#FFFFFF" d="M192.587,266.315l-1.674,10.501h-7.176l7.767-45.688h9.479l7.657,45.688h-7.246l-1.612-10.501H192.587z
			 M196.207,241.594l-2.552,18.013h5.104L196.207,241.594z"/>
		<path fill="#FFFFFF" d="M226.024,231.092l9.146,30.73v-30.73h6.891v45.724h-7.4l-9.481-29.279v29.279h-6.891v-45.724H226.024z"/>
		<path fill="#FFFFFF" d="M268.091,266.315l-1.674,10.501h-7.176l7.767-45.688h9.48l7.656,45.688h-7.246l-1.612-10.501H268.091z
			 M271.711,241.594l-2.552,18.013h5.104L271.711,241.594z"/>
		<path fill="#FFFFFF" d="M300.684,276.816h-6.892v-45.724h9.89l6.422,32.846l6.165-32.846h9.501v45.724h-6.892v-28.732
			l-5.979,28.732h-5.542l-6.673-28.66V276.816z"/>
		<path fill="#FFFFFF" d="M335.782,276.816v-45.724h10.318c2.723,0,5.178,0.717,7.366,2.151c1.871,1.216,3.208,3.1,4.011,5.652
			c0.438,1.361,0.656,2.978,0.656,4.85c0,3.062-0.814,5.518-2.443,7.365c-0.681,0.778-1.482,1.374-2.406,1.787
			c1.531,0.583,2.831,1.738,3.901,3.464c0.705,1.167,1.228,2.674,1.568,4.521c0.169,0.948,0.255,2.005,0.255,3.172
			c0,2.893-0.547,5.348-1.641,7.365c-0.852,1.58-2.055,2.844-3.61,3.792c-1.75,1.07-3.488,1.604-5.214,1.604H335.782z
			 M343.221,249.761h2.88c2.14,0,3.574-1.045,4.303-3.136c0.268-0.778,0.401-1.738,0.401-2.88c0-1.896-0.462-3.33-1.386-4.303
			c-0.851-0.899-1.957-1.349-3.318-1.349h-2.88V249.761z M343.221,269.998h2.88c2.334,0,3.95-1.203,4.85-3.609
			c0.316-0.826,0.475-1.774,0.475-2.845c0-2.552-0.486-4.411-1.459-5.578c-0.875-1.069-2.163-1.604-3.865-1.604h-2.88V269.998z"/>
		<path fill="#FFFFFF" d="M379.668,277.327c-3.039,0-5.615-1.058-7.73-3.173c-2.114-2.114-3.172-4.679-3.172-7.693v-35.332h6.745
			v35.26c0,1.094,0.389,2.023,1.167,2.789s1.714,1.148,2.808,1.148s2.023-0.383,2.79-1.148c0.766-0.766,1.148-1.695,1.148-2.789
			v-35.26h7.183v35.332c0,3.062-1.069,5.64-3.209,7.73C385.259,276.282,382.682,277.327,379.668,277.327z"/>
		<path fill="#FFFFFF" d="M422.934,265.44c0.049,3.185-0.778,5.906-2.479,8.167c-1.118,1.531-2.698,2.613-4.74,3.245
			c-1.094,0.341-2.37,0.511-3.828,0.511c-2.698,0-4.936-0.668-6.709-2.006c-1.483-1.094-2.656-2.582-3.52-4.466
			c-0.862-1.884-1.367-4.041-1.513-6.473l6.563-0.474c0.291,2.663,0.996,4.594,2.114,5.791c0.826,0.903,1.774,1.331,2.845,1.282
			c1.507-0.048,2.71-0.79,3.609-2.227c0.462-0.705,0.692-1.715,0.692-3.028c0-1.897-0.862-3.783-2.589-5.656
			c-1.361-1.29-3.403-3.224-6.125-5.803c-2.285-2.214-3.901-4.198-4.85-5.95c-1.021-1.971-1.531-4.111-1.531-6.423
			c0-4.16,1.397-7.312,4.193-9.453c1.726-1.289,3.864-1.934,6.417-1.934c2.455,0,4.558,0.547,6.308,1.641
			c1.361,0.851,2.462,2.042,3.3,3.573c0.839,1.531,1.343,3.294,1.514,5.287l-6.6,1.203c-0.195-1.872-0.729-3.33-1.604-4.375
			c-0.633-0.753-1.544-1.13-2.734-1.13c-1.265,0-2.225,0.56-2.881,1.677c-0.535,0.899-0.802,2.018-0.802,3.354
			c0,2.091,0.898,4.218,2.698,6.381c0.68,0.827,1.701,1.799,3.062,2.917c1.604,1.337,2.662,2.274,3.172,2.808
			c1.701,1.702,3.014,3.379,3.938,5.031c0.438,0.778,0.789,1.495,1.057,2.151C422.569,262.693,422.909,264.152,422.934,265.44z"/>
		<path fill="#FFFFFF" d="M439.398,257.455v19.361h-6.892v-45.688h6.892v19.398h8.313v-19.398h6.892v45.688h-6.892v-19.361H439.398z
			"/>
	</g>
	<path fill="#FFFFFF" d="M359.145,318.119h72.231c0.393,2.684,1.958,4.691,3.834,4.691c2.175,0,3.935-2.684,3.935-6.002
		c0-3.313-1.76-5.998-3.935-5.998c-1.876,0-3.441,2.008-3.834,4.692h-72.231V318.119z"/>
	<path fill="#FFFFFF" d="M149.002,315.501H76.606c-0.385-2.684-1.914-4.692-3.753-4.692c-2.128,0-3.851,2.684-3.851,5.998
		c0,3.319,1.723,6.002,3.851,6.002c1.839,0,3.369-2.007,3.753-4.691h72.396V315.501z"/>
	<path fill="#FFFFFF" d="M255.997,487.382c-130.148,0-236.032-105.884-236.032-236.029c0-130.155,105.884-236.045,236.032-236.045
		c130.15,0,236.037,105.889,236.037,236.045C492.034,381.499,386.147,487.382,255.997,487.382z M255.997,20.601
		c-127.231,0-230.74,103.514-230.74,230.753c0,127.228,103.509,230.737,230.74,230.737s230.745-103.509,230.745-230.737
		C486.742,124.115,383.228,20.601,255.997,20.601z"/>
	<path fill="#FFFFFF" d="M255.997,471.142c-121.192,0-219.792-98.597-219.792-219.789c0-121.202,98.6-219.805,219.792-219.805
		c121.194,0,219.794,98.602,219.794,219.805C475.792,372.545,377.191,471.142,255.997,471.142z M255.997,36.486
		c-118.478,0-214.867,96.384-214.867,214.867c0,118.473,96.388,214.857,214.867,214.857s214.867-96.384,214.867-214.857
		C470.864,132.87,374.476,36.486,255.997,36.486z"/>
	<path fill="#FFFFFF" d="M311.926,213.838c0,3.187-5.039,5.187-8.595,5.187l-1.853-0.075c-4.89,0-15.412-7.409-15.412-26.006
		c0-11.04,7.855-28.156,7.855-28.156l0.889-1.778c5.558-1.334,9.336-2.297,9.336-2.297c4.446-1.185,6.15-2.075,6.15-3.408
		c0-0.815-0.148-1.408-0.963-1.259c-0.889,0.074,0.519,0.518-3.706,1.037l-8.52,1.408c2.444-4.52,6.743-12.818,6.743-14.3
		c0-7.409-9.114-12.967-9.114-10.744c0,4.445-24.82,28.675-24.82,28.675l-0.369,0.316c0.999-3.211,1.546-6.446,1.546-9.601
		c0-25.489-32.675-27.489-32.675-27.489s2.223-2.297,26.304-2.371c1.185,1.556,3.779,4.742,5.779,4.446
		c4.519-0.593-1.408-2.741,0.741-7.558c2.075-4.742,6.076-10.151,5.483-15.263c-0.593-5.186-6.964-8.743-9.707-8.372
		c-2.741,0.37-0.37,1.408-0.074,3.853c0.37,2.964-0.593,6.372-1.555,8.965c-29.341,0.296-39.789,8.817-39.789,12.744
		c0,4.149,0.149,12.448,1.704,12.448c1.63,0,7.854-2.223,15.412-2.223c3.27,0,8.383,1.292,13.134,3.83
		c-0.732-0.111-1.498-0.177-2.309-0.177c-9.175,0-22.266,2.59-31.255,8.651c-13.048,10.173-16.839,16.774-16.839,24.373
		c0,9.706,6.89,26.896,22.968,26.896c12.97,0,25.93-8.49,34.109-19.588c3.177-2.908,5.683-5.477,7.169-7.062
		c4.075-0.963,8.374-1.927,12.449-2.89l1.703-0.148c0,0-5.261,9.706-5.261,21.857c0,12.225,4.52,32.453,23.786,32.453
		c9.484,0,12.225-4.075,12.225-6.52C314.593,211.245,311.926,210.652,311.926,213.838z M225.603,145.595
		c1.758-1.289,10.603-4.244,13.746-5.092c6.973-1.881,11.072-2.018,13.226-2.018c13.633,0,13.681,3.329,14.634,5.262
		c1.262,2.56,1.707,2.765,2.47,9.525c-0.901,6.073-2.551,6.91-5.621,9.98c-1.797,0.23-3.743,0.475-5.777,0.72
		c-9.484,1.26-23.562-0.519-24.006-3.705c0,0-2.223-2.815-1.704,1.334c0.593,4.149,4.519,12.892,17.116,11.262
		c1.981-0.264,4.731-0.764,7.927-1.395c-1.017,1.02-2.105,2.005-3.242,2.951c-3.445,2.365-7.737,5.049-12.273,7.288
		c-3.922,1.506-8.108,2.395-12.426,2.395c-13.781,0-19.036-9.419-19.569-16.337c-0.585-7.588,3.912-12.856,8.415-16.838
		 M282.955,160.565l-6.076,0.963l21.19-22.228c0,0-9.261,15.412-11.78,20.821L282.955,160.565z"/>
	<text transform="matrix(1 0 0 1 180.1069 323.7079)" fill="#FFFFFF" font-family="'JennaSue'" font-size="42">Web Developer</text>
</g>
</svg>
