<?xml version="1.0" encoding="utf-8"?>
<!-- Generator: Adobe Illustrator 17.0.0, SVG Export Plug-In . SVG Version: 6.00 Build 0)  -->
<!DOCTYPE svg PUBLIC "-//W3C//DTD SVG 1.1//EN" "http://www.w3.org/Graphics/SVG/1.1/DTD/svg11.dtd">
<svg version="1.1" id="Layer_1" xmlns="http://www.w3.org/2000/svg" xmlns:xlink="http://www.w3.org/1999/xlink" x="0px" y="0px"
	 width="512px" height="512px" viewBox="0 0 512 512" enable-background="new 0 0 512 512" xml:space="preserve">
<path fill="#FFFFFF" d="M444.046,469.081c0,12.205-19.302,19.868-32.922,19.868l-7.097-0.286c-18.729,0-59.03-28.38-59.03-99.609
	c0-42.287,30.084-107.844,30.084-107.844l3.404-6.81c21.289-5.108,35.759-8.798,35.759-8.798
	c17.03-4.539,23.555-7.946,23.555-13.054c0-3.12-0.566-5.392-3.687-4.822c-3.404,0.283,1.988,1.985-14.193,3.973l-32.633,5.392
	c9.362-17.313,25.826-49.097,25.826-54.772c0-28.38-34.91-49.666-34.91-41.151c0,17.027-95.067,109.829-95.067,109.829l-1.413,1.21
	c3.826-12.298,5.922-24.69,5.922-36.773c0-97.627-125.152-105.287-125.152-105.287s8.515-8.798,100.748-9.082
	c4.539,5.958,14.473,18.163,22.136,17.027c17.31-2.271-5.392-10.5,2.838-28.949c7.946-18.163,23.271-38.88,21-58.461
	c-2.271-19.865-26.675-33.488-37.178-32.066c-10.5,1.419-1.419,5.392-0.283,14.756c1.419,11.353-2.271,24.407-5.958,34.338
	c-112.384,1.135-152.399,33.771-152.399,48.814c0,15.892,0.569,47.678,6.527,47.678c6.244,0,30.082-8.515,59.031-8.515
	c12.523,0,32.109,4.95,50.304,14.67c-2.804-0.427-5.739-0.676-8.844-0.676c-35.143,0-85.284,9.919-119.713,33.134
	c-49.978,38.966-64.496,64.248-64.496,93.352c0,37.175,26.392,103.016,87.974,103.016c49.677,0,99.318-32.52,130.643-75.026
	c12.17-11.139,21.765-20.979,27.457-27.05c15.609-3.69,32.073-7.38,47.681-11.069l6.524-0.566c0,0-20.151,37.175-20.151,83.717
	c0,46.826,17.314,124.302,91.103,124.302c36.326,0,46.826-15.609,46.826-24.973C454.263,459.151,444.046,456.879,444.046,469.081z
	 M113.412,207.7c6.735-4.937,40.61-16.255,52.651-19.504c26.707-7.206,42.409-7.727,50.659-7.727
	c52.217,0,52.401,12.749,56.05,20.153c4.832,9.804,6.536,10.589,9.461,36.482c-3.45,23.261-9.77,26.466-21.529,38.226
	c-6.884,0.88-14.336,1.818-22.126,2.759c-36.326,4.825-90.248-1.988-91.949-14.19c0,0-8.515-10.783-6.527,5.108
	c2.271,15.892,17.31,49.38,65.558,43.136c7.587-1.012,18.12-2.927,30.363-5.342c-3.897,3.909-8.061,7.678-12.416,11.303
	c-13.197,9.059-29.635,19.34-47.009,27.914c-15.022,5.767-31.054,9.174-47.592,9.174c-52.784,0-72.913-36.078-74.955-62.573
	c-2.24-29.062,14.985-49.243,32.232-64.491 M333.081,265.034l-23.271,3.69l81.163-85.139c0,0-35.47,59.031-45.121,79.748
	L333.081,265.034z"/>
</svg>
